<?xml version="1.0" encoding="utf-8" standalone="no"?>
<!DOCTYPE svg PUBLIC "-//W3C//DTD SVG 1.1//EN"
  "http://www.w3.org/Graphics/SVG/1.1/DTD/svg11.dtd">
<svg xmlns:xlink="http://www.w3.org/1999/xlink" width="460.8pt" height="345.6pt" viewBox="0 0 460.8 345.6" xmlns="http://www.w3.org/2000/svg" version="1.1">
 <metadata>
  <rdf:RDF xmlns:dc="http://purl.org/dc/elements/1.1/" xmlns:cc="http://creativecommons.org/ns#" xmlns:rdf="http://www.w3.org/1999/02/22-rdf-syntax-ns#">
   <cc:Work>
    <dc:type rdf:resource="http://purl.org/dc/dcmitype/StillImage"/>
    <dc:date>2024-04-26T21:28:22.206266</dc:date>
    <dc:format>image/svg+xml</dc:format>
    <dc:creator>
     <cc:Agent>
      <dc:title>Matplotlib v3.8.4, https://matplotlib.org/</dc:title>
     </cc:Agent>
    </dc:creator>
   </cc:Work>
  </rdf:RDF>
 </metadata>
 <defs>
  <style type="text/css">*{stroke-linejoin: round; stroke-linecap: butt}</style>
 </defs>
 <g id="figure_1">
  <g id="patch_1">
   <path d="M 0 345.6 
L 460.8 345.6 
L 460.8 0 
L 0 0 
z
" style="fill: #ffffff"/>
  </g>
  <g id="axes_1">
   <g id="patch_2">
    <path d="M 57.6 307.584 
L 414.72 307.584 
L 414.72 41.472 
L 57.6 41.472 
z
" style="fill: #ffffff"/>
   </g>
   <g id="matplotlib.axis_1">
    <g id="xtick_1">
     <g id="line2d_1">
      <defs>
       <path id="m7b05937c41" d="M 0 0 
L 0 3.5 
" style="stroke: #000000; stroke-width: 0.8"/>
      </defs>
      <g>
       <use xlink:href="#m7b05937c41" x="73.832727" y="307.584" style="stroke: #000000; stroke-width: 0.8"/>
      </g>
     </g>
     <g id="text_1">
      <!-- 0 -->
      <g transform="translate(70.651477 322.182437) scale(0.1 -0.1)">
       <defs>
        <path id="DejaVuSans-30" d="M 2034 4250 
Q 1547 4250 1301 3770 
Q 1056 3291 1056 2328 
Q 1056 1369 1301 889 
Q 1547 409 2034 409 
Q 2525 409 2770 889 
Q 3016 1369 3016 2328 
Q 3016 3291 2770 3770 
Q 2525 4250 2034 4250 
z
M 2034 4750 
Q 2819 4750 3233 4129 
Q 3647 3509 3647 2328 
Q 3647 1150 3233 529 
Q 2819 -91 2034 -91 
Q 1250 -91 836 529 
Q 422 1150 422 2328 
Q 422 3509 836 4129 
Q 1250 4750 2034 4750 
z
" transform="scale(0.015625)"/>
       </defs>
       <use xlink:href="#DejaVuSans-30"/>
      </g>
     </g>
    </g>
    <g id="xtick_2">
     <g id="line2d_2">
      <g>
       <use xlink:href="#m7b05937c41" x="114.618474" y="307.584" style="stroke: #000000; stroke-width: 0.8"/>
      </g>
     </g>
     <g id="text_2">
      <!-- 25 -->
      <g transform="translate(108.255974 322.182437) scale(0.1 -0.1)">
       <defs>
        <path id="DejaVuSans-32" d="M 1228 531 
L 3431 531 
L 3431 0 
L 469 0 
L 469 531 
Q 828 903 1448 1529 
Q 2069 2156 2228 2338 
Q 2531 2678 2651 2914 
Q 2772 3150 2772 3378 
Q 2772 3750 2511 3984 
Q 2250 4219 1831 4219 
Q 1534 4219 1204 4116 
Q 875 4013 500 3803 
L 500 4441 
Q 881 4594 1212 4672 
Q 1544 4750 1819 4750 
Q 2544 4750 2975 4387 
Q 3406 4025 3406 3419 
Q 3406 3131 3298 2873 
Q 3191 2616 2906 2266 
Q 2828 2175 2409 1742 
Q 1991 1309 1228 531 
z
" transform="scale(0.015625)"/>
        <path id="DejaVuSans-35" d="M 691 4666 
L 3169 4666 
L 3169 4134 
L 1269 4134 
L 1269 2991 
Q 1406 3038 1543 3061 
Q 1681 3084 1819 3084 
Q 2600 3084 3056 2656 
Q 3513 2228 3513 1497 
Q 3513 744 3044 326 
Q 2575 -91 1722 -91 
Q 1428 -91 1123 -41 
Q 819 9 494 109 
L 494 744 
Q 775 591 1075 516 
Q 1375 441 1709 441 
Q 2250 441 2565 725 
Q 2881 1009 2881 1497 
Q 2881 1984 2565 2268 
Q 2250 2553 1709 2553 
Q 1456 2553 1204 2497 
Q 953 2441 691 2322 
L 691 4666 
z
" transform="scale(0.015625)"/>
       </defs>
       <use xlink:href="#DejaVuSans-32"/>
       <use xlink:href="#DejaVuSans-35" x="63.623047"/>
      </g>
     </g>
    </g>
    <g id="xtick_3">
     <g id="line2d_3">
      <g>
       <use xlink:href="#m7b05937c41" x="155.404221" y="307.584" style="stroke: #000000; stroke-width: 0.8"/>
      </g>
     </g>
     <g id="text_3">
      <!-- 50 -->
      <g transform="translate(149.041721 322.182437) scale(0.1 -0.1)">
       <use xlink:href="#DejaVuSans-35"/>
       <use xlink:href="#DejaVuSans-30" x="63.623047"/>
      </g>
     </g>
    </g>
    <g id="xtick_4">
     <g id="line2d_4">
      <g>
       <use xlink:href="#m7b05937c41" x="196.189968" y="307.584" style="stroke: #000000; stroke-width: 0.8"/>
      </g>
     </g>
     <g id="text_4">
      <!-- 75 -->
      <g transform="translate(189.827468 322.182437) scale(0.1 -0.1)">
       <defs>
        <path id="DejaVuSans-37" d="M 525 4666 
L 3525 4666 
L 3525 4397 
L 1831 0 
L 1172 0 
L 2766 4134 
L 525 4134 
L 525 4666 
z
" transform="scale(0.015625)"/>
       </defs>
       <use xlink:href="#DejaVuSans-37"/>
       <use xlink:href="#DejaVuSans-35" x="63.623047"/>
      </g>
     </g>
    </g>
    <g id="xtick_5">
     <g id="line2d_5">
      <g>
       <use xlink:href="#m7b05937c41" x="236.975715" y="307.584" style="stroke: #000000; stroke-width: 0.8"/>
      </g>
     </g>
     <g id="text_5">
      <!-- 100 -->
      <g transform="translate(227.431965 322.182437) scale(0.1 -0.1)">
       <defs>
        <path id="DejaVuSans-31" d="M 794 531 
L 1825 531 
L 1825 4091 
L 703 3866 
L 703 4441 
L 1819 4666 
L 2450 4666 
L 2450 531 
L 3481 531 
L 3481 0 
L 794 0 
L 794 531 
z
" transform="scale(0.015625)"/>
       </defs>
       <use xlink:href="#DejaVuSans-31"/>
       <use xlink:href="#DejaVuSans-30" x="63.623047"/>
       <use xlink:href="#DejaVuSans-30" x="127.246094"/>
      </g>
     </g>
    </g>
    <g id="xtick_6">
     <g id="line2d_6">
      <g>
       <use xlink:href="#m7b05937c41" x="277.761462" y="307.584" style="stroke: #000000; stroke-width: 0.8"/>
      </g>
     </g>
     <g id="text_6">
      <!-- 125 -->
      <g transform="translate(268.217712 322.182437) scale(0.1 -0.1)">
       <use xlink:href="#DejaVuSans-31"/>
       <use xlink:href="#DejaVuSans-32" x="63.623047"/>
       <use xlink:href="#DejaVuSans-35" x="127.246094"/>
      </g>
     </g>
    </g>
    <g id="xtick_7">
     <g id="line2d_7">
      <g>
       <use xlink:href="#m7b05937c41" x="318.547209" y="307.584" style="stroke: #000000; stroke-width: 0.8"/>
      </g>
     </g>
     <g id="text_7">
      <!-- 150 -->
      <g transform="translate(309.003459 322.182437) scale(0.1 -0.1)">
       <use xlink:href="#DejaVuSans-31"/>
       <use xlink:href="#DejaVuSans-35" x="63.623047"/>
       <use xlink:href="#DejaVuSans-30" x="127.246094"/>
      </g>
     </g>
    </g>
    <g id="xtick_8">
     <g id="line2d_8">
      <g>
       <use xlink:href="#m7b05937c41" x="359.332956" y="307.584" style="stroke: #000000; stroke-width: 0.8"/>
      </g>
     </g>
     <g id="text_8">
      <!-- 175 -->
      <g transform="translate(349.789206 322.182437) scale(0.1 -0.1)">
       <use xlink:href="#DejaVuSans-31"/>
       <use xlink:href="#DejaVuSans-37" x="63.623047"/>
       <use xlink:href="#DejaVuSans-35" x="127.246094"/>
      </g>
     </g>
    </g>
    <g id="xtick_9">
     <g id="line2d_9">
      <g>
       <use xlink:href="#m7b05937c41" x="400.118703" y="307.584" style="stroke: #000000; stroke-width: 0.8"/>
      </g>
     </g>
     <g id="text_9">
      <!-- 200 -->
      <g transform="translate(390.574953 322.182437) scale(0.1 -0.1)">
       <use xlink:href="#DejaVuSans-32"/>
       <use xlink:href="#DejaVuSans-30" x="63.623047"/>
       <use xlink:href="#DejaVuSans-30" x="127.246094"/>
      </g>
     </g>
    </g>
    <g id="text_10">
     <!-- Epochs -->
     <g transform="translate(218.244375 335.860562) scale(0.1 -0.1)">
      <defs>
       <path id="DejaVuSans-45" d="M 628 4666 
L 3578 4666 
L 3578 4134 
L 1259 4134 
L 1259 2753 
L 3481 2753 
L 3481 2222 
L 1259 2222 
L 1259 531 
L 3634 531 
L 3634 0 
L 628 0 
L 628 4666 
z
" transform="scale(0.015625)"/>
       <path id="DejaVuSans-70" d="M 1159 525 
L 1159 -1331 
L 581 -1331 
L 581 3500 
L 1159 3500 
L 1159 2969 
Q 1341 3281 1617 3432 
Q 1894 3584 2278 3584 
Q 2916 3584 3314 3078 
Q 3713 2572 3713 1747 
Q 3713 922 3314 415 
Q 2916 -91 2278 -91 
Q 1894 -91 1617 61 
Q 1341 213 1159 525 
z
M 3116 1747 
Q 3116 2381 2855 2742 
Q 2594 3103 2138 3103 
Q 1681 3103 1420 2742 
Q 1159 2381 1159 1747 
Q 1159 1113 1420 752 
Q 1681 391 2138 391 
Q 2594 391 2855 752 
Q 3116 1113 3116 1747 
z
" transform="scale(0.015625)"/>
       <path id="DejaVuSans-6f" d="M 1959 3097 
Q 1497 3097 1228 2736 
Q 959 2375 959 1747 
Q 959 1119 1226 758 
Q 1494 397 1959 397 
Q 2419 397 2687 759 
Q 2956 1122 2956 1747 
Q 2956 2369 2687 2733 
Q 2419 3097 1959 3097 
z
M 1959 3584 
Q 2709 3584 3137 3096 
Q 3566 2609 3566 1747 
Q 3566 888 3137 398 
Q 2709 -91 1959 -91 
Q 1206 -91 779 398 
Q 353 888 353 1747 
Q 353 2609 779 3096 
Q 1206 3584 1959 3584 
z
" transform="scale(0.015625)"/>
       <path id="DejaVuSans-63" d="M 3122 3366 
L 3122 2828 
Q 2878 2963 2633 3030 
Q 2388 3097 2138 3097 
Q 1578 3097 1268 2742 
Q 959 2388 959 1747 
Q 959 1106 1268 751 
Q 1578 397 2138 397 
Q 2388 397 2633 464 
Q 2878 531 3122 666 
L 3122 134 
Q 2881 22 2623 -34 
Q 2366 -91 2075 -91 
Q 1284 -91 818 406 
Q 353 903 353 1747 
Q 353 2603 823 3093 
Q 1294 3584 2113 3584 
Q 2378 3584 2631 3529 
Q 2884 3475 3122 3366 
z
" transform="scale(0.015625)"/>
       <path id="DejaVuSans-68" d="M 3513 2113 
L 3513 0 
L 2938 0 
L 2938 2094 
Q 2938 2591 2744 2837 
Q 2550 3084 2163 3084 
Q 1697 3084 1428 2787 
Q 1159 2491 1159 1978 
L 1159 0 
L 581 0 
L 581 4863 
L 1159 4863 
L 1159 2956 
Q 1366 3272 1645 3428 
Q 1925 3584 2291 3584 
Q 2894 3584 3203 3211 
Q 3513 2838 3513 2113 
z
" transform="scale(0.015625)"/>
       <path id="DejaVuSans-73" d="M 2834 3397 
L 2834 2853 
Q 2591 2978 2328 3040 
Q 2066 3103 1784 3103 
Q 1356 3103 1142 2972 
Q 928 2841 928 2578 
Q 928 2378 1081 2264 
Q 1234 2150 1697 2047 
L 1894 2003 
Q 2506 1872 2764 1633 
Q 3022 1394 3022 966 
Q 3022 478 2636 193 
Q 2250 -91 1575 -91 
Q 1294 -91 989 -36 
Q 684 19 347 128 
L 347 722 
Q 666 556 975 473 
Q 1284 391 1588 391 
Q 1994 391 2212 530 
Q 2431 669 2431 922 
Q 2431 1156 2273 1281 
Q 2116 1406 1581 1522 
L 1381 1569 
Q 847 1681 609 1914 
Q 372 2147 372 2553 
Q 372 3047 722 3315 
Q 1072 3584 1716 3584 
Q 2034 3584 2315 3537 
Q 2597 3491 2834 3397 
z
" transform="scale(0.015625)"/>
      </defs>
      <use xlink:href="#DejaVuSans-45"/>
      <use xlink:href="#DejaVuSans-70" x="63.183594"/>
      <use xlink:href="#DejaVuSans-6f" x="126.660156"/>
      <use xlink:href="#DejaVuSans-63" x="187.841797"/>
      <use xlink:href="#DejaVuSans-68" x="242.822266"/>
      <use xlink:href="#DejaVuSans-73" x="306.201172"/>
     </g>
    </g>
   </g>
   <g id="matplotlib.axis_2">
    <g id="ytick_1">
     <g id="line2d_10">
      <defs>
       <path id="m9aef18f8c4" d="M 0 0 
L -3.5 0 
" style="stroke: #000000; stroke-width: 0.8"/>
      </defs>
      <g>
       <use xlink:href="#m9aef18f8c4" x="57.6" y="291.858563" style="stroke: #000000; stroke-width: 0.8"/>
      </g>
     </g>
     <g id="text_11">
      <!-- 0.5 -->
      <g transform="translate(34.696875 295.657782) scale(0.1 -0.1)">
       <defs>
        <path id="DejaVuSans-2e" d="M 684 794 
L 1344 794 
L 1344 0 
L 684 0 
L 684 794 
z
" transform="scale(0.015625)"/>
       </defs>
       <use xlink:href="#DejaVuSans-30"/>
       <use xlink:href="#DejaVuSans-2e" x="63.623047"/>
       <use xlink:href="#DejaVuSans-35" x="95.410156"/>
      </g>
     </g>
    </g>
    <g id="ytick_2">
     <g id="line2d_11">
      <g>
       <use xlink:href="#m9aef18f8c4" x="57.6" y="258.863684" style="stroke: #000000; stroke-width: 0.8"/>
      </g>
     </g>
     <g id="text_12">
      <!-- 1.0 -->
      <g transform="translate(34.696875 262.662902) scale(0.1 -0.1)">
       <use xlink:href="#DejaVuSans-31"/>
       <use xlink:href="#DejaVuSans-2e" x="63.623047"/>
       <use xlink:href="#DejaVuSans-30" x="95.410156"/>
      </g>
     </g>
    </g>
    <g id="ytick_3">
     <g id="line2d_12">
      <g>
       <use xlink:href="#m9aef18f8c4" x="57.6" y="225.868805" style="stroke: #000000; stroke-width: 0.8"/>
      </g>
     </g>
     <g id="text_13">
      <!-- 1.5 -->
      <g transform="translate(34.696875 229.668023) scale(0.1 -0.1)">
       <use xlink:href="#DejaVuSans-31"/>
       <use xlink:href="#DejaVuSans-2e" x="63.623047"/>
       <use xlink:href="#DejaVuSans-35" x="95.410156"/>
      </g>
     </g>
    </g>
    <g id="ytick_4">
     <g id="line2d_13">
      <g>
       <use xlink:href="#m9aef18f8c4" x="57.6" y="192.873925" style="stroke: #000000; stroke-width: 0.8"/>
      </g>
     </g>
     <g id="text_14">
      <!-- 2.0 -->
      <g transform="translate(34.696875 196.673144) scale(0.1 -0.1)">
       <use xlink:href="#DejaVuSans-32"/>
       <use xlink:href="#DejaVuSans-2e" x="63.623047"/>
       <use xlink:href="#DejaVuSans-30" x="95.410156"/>
      </g>
     </g>
    </g>
    <g id="ytick_5">
     <g id="line2d_14">
      <g>
       <use xlink:href="#m9aef18f8c4" x="57.6" y="159.879046" style="stroke: #000000; stroke-width: 0.8"/>
      </g>
     </g>
     <g id="text_15">
      <!-- 2.5 -->
      <g transform="translate(34.696875 163.678265) scale(0.1 -0.1)">
       <use xlink:href="#DejaVuSans-32"/>
       <use xlink:href="#DejaVuSans-2e" x="63.623047"/>
       <use xlink:href="#DejaVuSans-35" x="95.410156"/>
      </g>
     </g>
    </g>
    <g id="ytick_6">
     <g id="line2d_15">
      <g>
       <use xlink:href="#m9aef18f8c4" x="57.6" y="126.884167" style="stroke: #000000; stroke-width: 0.8"/>
      </g>
     </g>
     <g id="text_16">
      <!-- 3.0 -->
      <g transform="translate(34.696875 130.683386) scale(0.1 -0.1)">
       <defs>
        <path id="DejaVuSans-33" d="M 2597 2516 
Q 3050 2419 3304 2112 
Q 3559 1806 3559 1356 
Q 3559 666 3084 287 
Q 2609 -91 1734 -91 
Q 1441 -91 1130 -33 
Q 819 25 488 141 
L 488 750 
Q 750 597 1062 519 
Q 1375 441 1716 441 
Q 2309 441 2620 675 
Q 2931 909 2931 1356 
Q 2931 1769 2642 2001 
Q 2353 2234 1838 2234 
L 1294 2234 
L 1294 2753 
L 1863 2753 
Q 2328 2753 2575 2939 
Q 2822 3125 2822 3475 
Q 2822 3834 2567 4026 
Q 2313 4219 1838 4219 
Q 1578 4219 1281 4162 
Q 984 4106 628 3988 
L 628 4550 
Q 988 4650 1302 4700 
Q 1616 4750 1894 4750 
Q 2613 4750 3031 4423 
Q 3450 4097 3450 3541 
Q 3450 3153 3228 2886 
Q 3006 2619 2597 2516 
z
" transform="scale(0.015625)"/>
       </defs>
       <use xlink:href="#DejaVuSans-33"/>
       <use xlink:href="#DejaVuSans-2e" x="63.623047"/>
       <use xlink:href="#DejaVuSans-30" x="95.410156"/>
      </g>
     </g>
    </g>
    <g id="ytick_7">
     <g id="line2d_16">
      <g>
       <use xlink:href="#m9aef18f8c4" x="57.6" y="93.889288" style="stroke: #000000; stroke-width: 0.8"/>
      </g>
     </g>
     <g id="text_17">
      <!-- 3.5 -->
      <g transform="translate(34.696875 97.688507) scale(0.1 -0.1)">
       <use xlink:href="#DejaVuSans-33"/>
       <use xlink:href="#DejaVuSans-2e" x="63.623047"/>
       <use xlink:href="#DejaVuSans-35" x="95.410156"/>
      </g>
     </g>
    </g>
    <g id="ytick_8">
     <g id="line2d_17">
      <g>
       <use xlink:href="#m9aef18f8c4" x="57.6" y="60.894409" style="stroke: #000000; stroke-width: 0.8"/>
      </g>
     </g>
     <g id="text_18">
      <!-- 4.0 -->
      <g transform="translate(34.696875 64.693628) scale(0.1 -0.1)">
       <defs>
        <path id="DejaVuSans-34" d="M 2419 4116 
L 825 1625 
L 2419 1625 
L 2419 4116 
z
M 2253 4666 
L 3047 4666 
L 3047 1625 
L 3713 1625 
L 3713 1100 
L 3047 1100 
L 3047 0 
L 2419 0 
L 2419 1100 
L 313 1100 
L 313 1709 
L 2253 4666 
z
" transform="scale(0.015625)"/>
       </defs>
       <use xlink:href="#DejaVuSans-34"/>
       <use xlink:href="#DejaVuSans-2e" x="63.623047"/>
       <use xlink:href="#DejaVuSans-30" x="95.410156"/>
      </g>
     </g>
    </g>
    <g id="text_19">
     <!-- accuracy -->
     <g transform="translate(28.617187 197.087375) rotate(-90) scale(0.1 -0.1)">
      <defs>
       <path id="DejaVuSans-61" d="M 2194 1759 
Q 1497 1759 1228 1600 
Q 959 1441 959 1056 
Q 959 750 1161 570 
Q 1363 391 1709 391 
Q 2188 391 2477 730 
Q 2766 1069 2766 1631 
L 2766 1759 
L 2194 1759 
z
M 3341 1997 
L 3341 0 
L 2766 0 
L 2766 531 
Q 2569 213 2275 61 
Q 1981 -91 1556 -91 
Q 1019 -91 701 211 
Q 384 513 384 1019 
Q 384 1609 779 1909 
Q 1175 2209 1959 2209 
L 2766 2209 
L 2766 2266 
Q 2766 2663 2505 2880 
Q 2244 3097 1772 3097 
Q 1472 3097 1187 3025 
Q 903 2953 641 2809 
L 641 3341 
Q 956 3463 1253 3523 
Q 1550 3584 1831 3584 
Q 2591 3584 2966 3190 
Q 3341 2797 3341 1997 
z
" transform="scale(0.015625)"/>
       <path id="DejaVuSans-75" d="M 544 1381 
L 544 3500 
L 1119 3500 
L 1119 1403 
Q 1119 906 1312 657 
Q 1506 409 1894 409 
Q 2359 409 2629 706 
Q 2900 1003 2900 1516 
L 2900 3500 
L 3475 3500 
L 3475 0 
L 2900 0 
L 2900 538 
Q 2691 219 2414 64 
Q 2138 -91 1772 -91 
Q 1169 -91 856 284 
Q 544 659 544 1381 
z
M 1991 3584 
L 1991 3584 
z
" transform="scale(0.015625)"/>
       <path id="DejaVuSans-72" d="M 2631 2963 
Q 2534 3019 2420 3045 
Q 2306 3072 2169 3072 
Q 1681 3072 1420 2755 
Q 1159 2438 1159 1844 
L 1159 0 
L 581 0 
L 581 3500 
L 1159 3500 
L 1159 2956 
Q 1341 3275 1631 3429 
Q 1922 3584 2338 3584 
Q 2397 3584 2469 3576 
Q 2541 3569 2628 3553 
L 2631 2963 
z
" transform="scale(0.015625)"/>
       <path id="DejaVuSans-79" d="M 2059 -325 
Q 1816 -950 1584 -1140 
Q 1353 -1331 966 -1331 
L 506 -1331 
L 506 -850 
L 844 -850 
Q 1081 -850 1212 -737 
Q 1344 -625 1503 -206 
L 1606 56 
L 191 3500 
L 800 3500 
L 1894 763 
L 2988 3500 
L 3597 3500 
L 2059 -325 
z
" transform="scale(0.015625)"/>
      </defs>
      <use xlink:href="#DejaVuSans-61"/>
      <use xlink:href="#DejaVuSans-63" x="61.279297"/>
      <use xlink:href="#DejaVuSans-63" x="116.259766"/>
      <use xlink:href="#DejaVuSans-75" x="171.240234"/>
      <use xlink:href="#DejaVuSans-72" x="234.619141"/>
      <use xlink:href="#DejaVuSans-61" x="275.732422"/>
      <use xlink:href="#DejaVuSans-63" x="337.011719"/>
      <use xlink:href="#DejaVuSans-79" x="391.992188"/>
     </g>
    </g>
   </g>
   <g id="line2d_18">
    <path d="M 73.832727 213.418727 
L 75.464157 269.693826 
L 77.095587 273.815181 
L 78.727017 275.442157 
L 80.358447 277.677024 
L 81.989877 255.029766 
L 83.621307 278.522034 
L 85.252736 278.627486 
L 86.884166 278.983897 
L 88.515596 279.115388 
L 90.147026 278.626896 
L 91.778456 279.051892 
L 93.409886 279.657954 
L 95.041316 279.467697 
L 96.672746 279.869908 
L 98.304175 279.53754 
L 99.935605 280.058258 
L 101.567035 279.680083 
L 103.198465 279.502034 
L 104.829895 279.633859 
L 108.092755 279.550209 
L 109.724185 280.035598 
L 111.355614 280.176886 
L 112.987044 280.161888 
L 114.618474 279.590313 
L 116.249904 279.938866 
L 119.512764 279.454552 
L 121.144194 280.077232 
L 122.775624 279.333827 
L 124.407053 279.475312 
L 126.038483 278.943699 
L 127.669913 279.307494 
L 129.301343 278.799072 
L 130.932773 278.941532 
L 134.195633 279.596823 
L 135.827063 279.293908 
L 137.458492 279.394372 
L 139.089922 279.878042 
L 140.721352 279.171036 
L 142.352782 280.004407 
L 143.984212 278.490635 
L 145.615642 278.935306 
L 147.247072 279.256333 
L 152.141361 279.012654 
L 153.772791 279.063177 
L 155.404221 278.846795 
L 157.035651 279.363822 
L 158.667081 278.977789 
L 160.298511 279.18232 
L 163.56137 279.185349 
L 165.1928 278.859904 
L 166.82423 278.846264 
L 168.45566 279.453313 
L 170.08709 278.029829 
L 171.71852 279.035074 
L 173.34995 279.181522 
L 174.98138 279.095123 
L 176.61281 279.393287 
L 178.244239 279.138779 
L 179.875669 278.741945 
L 183.138529 279.179142 
L 184.769959 279.21606 
L 186.401389 279.810578 
L 188.032819 278.727895 
L 189.664249 279.084141 
L 191.295678 279.199835 
L 192.927108 279.95707 
L 194.558538 279.380696 
L 197.821398 279.406605 
L 199.452828 278.985195 
L 201.084258 278.787933 
L 202.715688 279.036187 
L 204.347117 279.114947 
L 205.978547 278.886501 
L 207.609977 279.094427 
L 212.504267 278.977455 
L 214.135697 279.187119 
L 217.398556 278.958524 
L 219.029986 279.370839 
L 220.661416 279.128206 
L 222.292846 279.244506 
L 223.924276 279.12834 
L 225.555706 279.208028 
L 227.187136 278.80861 
L 228.818566 279.159067 
L 230.449995 278.386449 
L 232.081425 279.053057 
L 235.344285 279.110443 
L 236.975715 278.900476 
L 238.607145 279.062831 
L 241.870005 278.965494 
L 243.501434 279.076145 
L 245.132864 279.042673 
L 246.764294 279.240706 
L 248.395724 278.929288 
L 250.027154 279.026574 
L 251.658584 278.889675 
L 256.552873 279.157025 
L 258.184303 278.941965 
L 263.078593 279.134421 
L 266.341453 278.998506 
L 269.604312 279.146874 
L 272.867172 278.886068 
L 274.498602 279.06794 
L 276.130032 279.026589 
L 277.761462 279.264153 
L 279.392892 279.020866 
L 281.024322 279.24718 
L 282.655751 278.926534 
L 290.812901 279.151991 
L 294.075761 279.113456 
L 295.70719 278.732347 
L 297.33862 279.079237 
L 310.390059 279.120792 
L 312.021489 278.943605 
L 313.652919 279.076098 
L 318.547209 279.105122 
L 320.178639 278.826786 
L 323.441498 279.120123 
L 325.072928 278.988287 
L 328.335788 279.086269 
L 334.861508 279.052876 
L 338.124367 279.04626 
L 364.227245 279.035805 
L 365.858675 278.9592 
L 367.490105 279.073195 
L 372.384395 279.101444 
L 374.015825 278.479779 
L 375.647254 279.10638 
L 377.278684 279.129536 
L 378.910114 279.022585 
L 383.804404 279.144325 
L 395.224413 279.095001 
L 398.487273 279.090132 
L 398.487273 279.090132 
" clip-path="url(#p9873e65d50)" style="fill: none; stroke: #1f77b4; stroke-width: 1.5; stroke-linecap: square"/>
   </g>
   <g id="line2d_19">
    <path d="M 73.832727 277.744677 
L 75.464157 278.903383 
L 77.095587 279.029386 
L 78.727017 279.267209 
L 80.358447 268.960683 
L 81.989877 278.924678 
L 83.621307 279.422747 
L 85.252736 280.049357 
L 86.884166 280.185453 
L 88.515596 279.709834 
L 90.147026 280.090589 
L 91.778456 280.81561 
L 93.409886 280.608231 
L 95.041316 280.125623 
L 96.672746 280.853208 
L 98.304175 280.266164 
L 99.935605 281.989321 
L 101.567035 279.868283 
L 104.829895 279.861813 
L 106.461325 280.770487 
L 108.092755 280.300993 
L 109.724185 280.432298 
L 111.355614 281.119583 
L 112.987044 281.137802 
L 114.618474 280.313371 
L 116.249904 280.667073 
L 117.881334 279.957199 
L 119.512764 280.188906 
L 121.144194 279.90364 
L 122.775624 280.113241 
L 124.407053 280.005559 
L 126.038483 279.354615 
L 127.669913 279.423585 
L 130.932773 279.260959 
L 132.564203 279.515711 
L 134.195633 277.986681 
L 135.827063 279.828738 
L 137.458492 279.898837 
L 139.089922 279.695659 
L 140.721352 281.18768 
L 142.352782 276.574522 
L 143.984212 279.050217 
L 145.615642 279.252471 
L 147.247072 279.175854 
L 148.878502 276.961385 
L 150.509931 279.287454 
L 152.141361 279.145603 
L 153.772791 279.709488 
L 155.404221 279.531263 
L 157.035651 280.343717 
L 158.667081 279.891942 
L 160.298511 279.78013 
L 161.929941 279.840542 
L 163.56137 280.324668 
L 165.1928 280.009371 
L 166.82423 276.596764 
L 168.45566 53.568 
L 170.08709 279.113444 
L 171.71852 279.182364 
L 174.98138 279.842965 
L 176.61281 279.798743 
L 178.244239 279.374316 
L 179.875669 279.583564 
L 181.507099 279.26582 
L 184.769959 280.038501 
L 186.401389 278.709196 
L 188.032819 279.171504 
L 189.664249 279.280598 
L 191.295678 280.115994 
L 192.927108 279.477971 
L 194.558538 279.739012 
L 196.189968 278.953344 
L 197.821398 280.777402 
L 199.452828 279.035675 
L 202.715688 279.140285 
L 204.347117 278.913444 
L 205.978547 279.143172 
L 214.135697 279.186588 
L 219.029986 279.339609 
L 220.661416 279.055369 
L 222.292846 279.320367 
L 223.924276 277.915087 
L 225.555706 279.257234 
L 228.818566 279.707451 
L 230.449995 279.130566 
L 241.870005 279.120041 
L 254.921444 279.137906 
L 256.552873 279.476075 
L 258.184303 279.123864 
L 279.392892 279.026224 
L 281.024322 278.911875 
L 282.655751 279.125111 
L 328.335788 279.107568 
L 329.967218 278.776986 
L 331.598648 279.109672 
L 383.804404 279.109543 
L 385.435834 278.66672 
L 387.067264 279.112847 
L 398.487273 279.108634 
L 398.487273 279.108634 
" clip-path="url(#p9873e65d50)" style="fill: none; stroke: #ff7f0e; stroke-width: 1.5; stroke-linecap: square"/>
   </g>
   <g id="line2d_20">
    <path d="M 73.832727 291.180337 
L 75.464157 291.125341 
L 77.095587 292.445139 
L 78.727017 291.693589 
L 80.358447 290.630419 
L 81.989877 291.766909 
L 83.621307 290.392124 
L 85.252736 290.117167 
L 86.884166 289.328954 
L 88.515596 288.742381 
L 90.147026 290.447115 
L 91.778456 289.182313 
L 93.409886 288.119143 
L 95.041316 289.45727 
L 96.672746 288.247455 
L 98.304175 288.504083 
L 99.935605 287.019315 
L 101.567035 288.705719 
L 103.198465 289.035668 
L 104.829895 289.53059 
L 108.092755 288.174134 
L 109.724185 287.935839 
L 111.355614 288.357438 
L 112.987044 286.56105 
L 114.618474 288.320779 
L 116.249904 288.192463 
L 117.881334 288.192463 
L 119.512764 289.090659 
L 121.144194 288.944014 
L 122.775624 289.237304 
L 124.407053 289.035668 
L 126.038483 291.656926 
L 127.669913 290.135496 
L 129.301343 290.337132 
L 130.932773 292.005206 
L 132.564203 289.035668 
L 134.195633 288.852364 
L 135.827063 290.007184 
L 137.458492 289.182313 
L 139.089922 289.438937 
L 140.721352 288.357438 
L 142.352782 287.660882 
L 143.984212 289.952193 
L 145.615642 292.738425 
L 147.247072 291.052021 
L 148.878502 291.565277 
L 150.509931 290.923709 
L 152.141361 291.528614 
L 153.772791 291.858563 
L 155.404221 290.832055 
L 157.035651 290.465444 
L 158.667081 289.970522 
L 160.298511 290.447115 
L 161.929941 290.043846 
L 163.56137 290.428786 
L 165.1928 290.318803 
L 166.82423 288.944014 
L 168.45566 289.732227 
L 170.08709 291.107012 
L 171.71852 291.803571 
L 173.34995 289.695565 
L 174.98138 289.91553 
L 176.61281 289.292296 
L 178.244239 290.447115 
L 179.875669 290.172158 
L 181.507099 290.905376 
L 183.138529 290.190487 
L 184.769959 289.07233 
L 186.401389 288.815702 
L 188.032819 291.931885 
L 189.664249 290.68541 
L 191.295678 289.182313 
L 192.927108 289.768885 
L 194.558538 290.538769 
L 196.189968 288.614066 
L 197.821398 289.328954 
L 199.452828 291.143674 
L 201.084258 291.271986 
L 204.347117 290.465444 
L 205.978547 292.005206 
L 207.609977 291.510285 
L 209.241407 292.445139 
L 210.872837 291.455294 
L 214.135697 290.740401 
L 215.767127 292.353486 
L 217.398556 290.282141 
L 219.029986 289.658902 
L 222.292846 290.447115 
L 223.924276 290.703743 
L 227.187136 290.868717 
L 228.818566 290.062175 
L 230.449995 292.830079 
L 232.081425 291.36364 
L 233.712855 291.821901 
L 235.344285 291.546944 
L 236.975715 292.206842 
L 238.607145 291.326978 
L 240.238575 292.188511 
L 241.870005 291.235328 
L 243.501434 292.206842 
L 245.132864 291.785242 
L 246.764294 289.658902 
L 248.395724 290.612089 
L 250.027154 291.381969 
L 251.658584 290.483778 
L 253.290014 291.968546 
L 254.921444 290.245479 
L 256.552873 290.337132 
L 258.184303 291.601935 
L 259.815733 292.206842 
L 261.447163 292.591782 
L 263.078593 291.766909 
L 264.710023 291.162004 
L 267.972883 290.887047 
L 269.604312 291.216995 
L 271.235742 290.740401 
L 272.867172 291.968546 
L 274.498602 291.895223 
L 276.130032 290.777064 
L 277.761462 289.988855 
L 279.392892 292.261834 
L 281.024322 290.575427 
L 282.655751 291.74858 
L 284.287181 291.858563 
L 285.918611 292.13352 
L 287.550041 291.29032 
L 289.181471 290.263812 
L 290.812901 291.088683 
L 292.444331 291.29032 
L 294.075761 291.345311 
L 295.70719 292.151851 
L 297.33862 292.188511 
L 300.60148 291.400302 
L 302.23291 291.858563 
L 303.86434 291.913554 
L 305.49577 290.887047 
L 307.1272 291.968546 
L 308.75863 292.610113 
L 310.390059 291.308649 
L 312.021489 291.968546 
L 313.652919 292.09686 
L 315.284349 292.426808 
L 316.915779 292.298494 
L 318.547209 291.675259 
L 320.178639 291.913554 
L 321.810069 292.793417 
L 323.441498 293.343333 
L 326.704358 292.316825 
L 329.967218 291.986877 
L 331.598648 292.13352 
L 333.230078 292.13352 
L 334.861508 292.316825 
L 336.492937 292.041868 
L 338.124367 292.848408 
L 339.755797 292.573451 
L 341.387227 291.546944 
L 344.650087 291.913554 
L 346.281517 291.546944 
L 347.912947 293.123367 
L 349.544376 291.730251 
L 351.175806 292.023537 
L 352.807236 291.840234 
L 356.070096 291.968546 
L 357.701526 292.536791 
L 359.332956 291.308649 
L 360.964386 291.931885 
L 362.595815 291.840234 
L 364.227245 292.573451 
L 365.858675 292.060197 
L 367.490105 292.206842 
L 369.121535 291.968546 
L 370.752965 291.913554 
L 372.384395 291.583606 
L 374.015825 291.968546 
L 380.541544 291.803571 
L 382.172974 292.610113 
L 383.804404 291.840234 
L 385.435834 291.730251 
L 387.067264 293.251679 
L 388.698693 291.766909 
L 390.330123 292.903402 
L 391.961553 291.766909 
L 393.592983 291.711918 
L 396.855843 291.931885 
L 398.487273 291.766909 
L 398.487273 291.766909 
" clip-path="url(#p9873e65d50)" style="fill: none; stroke: #2ca02c; stroke-width: 1.5; stroke-linecap: square"/>
   </g>
   <g id="line2d_21">
    <path d="M 73.832727 290.043846 
L 75.464157 291.033692 
L 77.095587 292.848408 
L 78.727017 289.878872 
L 80.358447 290.373795 
L 81.989877 292.683434 
L 83.621307 288.724048 
L 85.252736 286.579383 
L 86.884166 289.053997 
L 88.515596 290.373795 
L 90.147026 287.734203 
L 91.778456 288.064151 
L 93.409886 288.064151 
L 95.041316 292.188511 
L 96.672746 287.404254 
L 98.304175 290.703743 
L 99.935605 286.744358 
L 101.567035 288.889023 
L 103.198465 287.899177 
L 104.829895 288.3941 
L 108.092755 285.094611 
L 109.724185 286.084461 
L 111.355614 288.064151 
L 112.987044 287.569229 
L 114.618474 290.20882 
L 116.249904 286.249435 
L 117.881334 286.249435 
L 119.512764 286.084461 
L 121.144194 290.538769 
L 122.775624 287.899177 
L 124.407053 285.589534 
L 126.038483 287.899177 
L 127.669913 288.889023 
L 129.301343 288.559074 
L 130.932773 288.724048 
L 132.564203 286.909332 
L 134.195633 288.064151 
L 135.827063 288.889023 
L 137.458492 285.754512 
L 139.089922 285.919486 
L 142.352782 288.559074 
L 143.984212 292.848408 
L 145.615642 289.053997 
L 148.878502 292.848408 
L 150.509931 290.868717 
L 152.141361 290.043846 
L 153.772791 285.094611 
L 155.404221 289.713894 
L 157.035651 290.20882 
L 158.667081 286.744358 
L 160.298511 289.54892 
L 161.929941 286.909332 
L 163.56137 286.084461 
L 165.1928 285.094611 
L 166.82423 287.569229 
L 168.45566 287.23928 
L 170.08709 293.178359 
L 171.71852 290.538769 
L 173.34995 291.858563 
L 174.98138 286.744358 
L 176.61281 287.899177 
L 178.244239 290.538769 
L 179.875669 289.878872 
L 181.507099 289.713894 
L 183.138529 284.929637 
L 184.769959 289.218971 
L 186.401389 292.848408 
L 188.032819 289.878872 
L 189.664249 289.218971 
L 191.295678 286.909332 
L 192.927108 289.54892 
L 194.558538 288.889023 
L 196.189968 292.848408 
L 197.821398 287.899177 
L 199.452828 295.488 
L 201.084258 290.868717 
L 202.715688 290.538769 
L 204.347117 292.848408 
L 205.978547 290.868717 
L 209.241407 290.868717 
L 210.872837 292.848408 
L 212.504267 290.868717 
L 214.135697 289.54892 
L 215.767127 290.538769 
L 217.398556 287.569229 
L 219.029986 289.218971 
L 220.661416 289.54892 
L 222.292846 287.734203 
L 223.924276 293.508307 
L 225.555706 292.848408 
L 228.818566 286.744358 
L 230.449995 290.868717 
L 232.081425 290.703743 
L 233.712855 290.868717 
L 245.132864 290.868717 
L 246.764294 290.20882 
L 248.395724 290.868717 
L 250.027154 291.198666 
L 251.658584 290.868717 
L 253.290014 290.20882 
L 254.921444 289.218971 
L 256.552873 288.3941 
L 258.184303 290.868717 
L 264.710023 290.868717 
L 266.341453 292.848408 
L 267.972883 290.868717 
L 269.604312 290.868717 
L 271.235742 289.878872 
L 272.867172 290.868717 
L 274.498602 290.868717 
L 276.130032 290.20882 
L 277.761462 290.703743 
L 279.392892 290.868717 
L 320.178639 290.868717 
L 321.810069 289.713894 
L 323.441498 292.848408 
L 336.492937 292.848408 
L 338.124367 290.868717 
L 339.755797 292.848408 
L 344.650087 292.848408 
L 346.281517 293.178359 
L 347.912947 292.848408 
L 364.227245 292.848408 
L 365.858675 291.858563 
L 367.490105 292.848408 
L 370.752965 292.848408 
L 372.384395 291.858563 
L 374.015825 291.858563 
L 375.647254 292.848408 
L 385.435834 292.848408 
L 387.067264 290.868717 
L 388.698693 292.848408 
L 398.487273 292.848408 
L 398.487273 292.848408 
" clip-path="url(#p9873e65d50)" style="fill: none; stroke: #d62728; stroke-width: 1.5; stroke-linecap: square"/>
   </g>
   <g id="patch_3">
    <path d="M 57.6 307.584 
L 57.6 41.472 
" style="fill: none; stroke: #000000; stroke-width: 0.8; stroke-linejoin: miter; stroke-linecap: square"/>
   </g>
   <g id="patch_4">
    <path d="M 414.72 307.584 
L 414.72 41.472 
" style="fill: none; stroke: #000000; stroke-width: 0.8; stroke-linejoin: miter; stroke-linecap: square"/>
   </g>
   <g id="patch_5">
    <path d="M 57.6 307.584 
L 414.72 307.584 
" style="fill: none; stroke: #000000; stroke-width: 0.8; stroke-linejoin: miter; stroke-linecap: square"/>
   </g>
   <g id="patch_6">
    <path d="M 57.6 41.472 
L 414.72 41.472 
" style="fill: none; stroke: #000000; stroke-width: 0.8; stroke-linejoin: miter; stroke-linecap: square"/>
   </g>
   <g id="text_20">
    <!-- Train and Validation accuracy Over Epochs -->
    <g transform="translate(87.005312 35.472) scale(0.14 -0.14)">
     <defs>
      <path id="DejaVuSans-54" d="M -19 4666 
L 3928 4666 
L 3928 4134 
L 2272 4134 
L 2272 0 
L 1638 0 
L 1638 4134 
L -19 4134 
L -19 4666 
z
" transform="scale(0.015625)"/>
      <path id="DejaVuSans-69" d="M 603 3500 
L 1178 3500 
L 1178 0 
L 603 0 
L 603 3500 
z
M 603 4863 
L 1178 4863 
L 1178 4134 
L 603 4134 
L 603 4863 
z
" transform="scale(0.015625)"/>
      <path id="DejaVuSans-6e" d="M 3513 2113 
L 3513 0 
L 2938 0 
L 2938 2094 
Q 2938 2591 2744 2837 
Q 2550 3084 2163 3084 
Q 1697 3084 1428 2787 
Q 1159 2491 1159 1978 
L 1159 0 
L 581 0 
L 581 3500 
L 1159 3500 
L 1159 2956 
Q 1366 3272 1645 3428 
Q 1925 3584 2291 3584 
Q 2894 3584 3203 3211 
Q 3513 2838 3513 2113 
z
" transform="scale(0.015625)"/>
      <path id="DejaVuSans-20" transform="scale(0.015625)"/>
      <path id="DejaVuSans-64" d="M 2906 2969 
L 2906 4863 
L 3481 4863 
L 3481 0 
L 2906 0 
L 2906 525 
Q 2725 213 2448 61 
Q 2172 -91 1784 -91 
Q 1150 -91 751 415 
Q 353 922 353 1747 
Q 353 2572 751 3078 
Q 1150 3584 1784 3584 
Q 2172 3584 2448 3432 
Q 2725 3281 2906 2969 
z
M 947 1747 
Q 947 1113 1208 752 
Q 1469 391 1925 391 
Q 2381 391 2643 752 
Q 2906 1113 2906 1747 
Q 2906 2381 2643 2742 
Q 2381 3103 1925 3103 
Q 1469 3103 1208 2742 
Q 947 2381 947 1747 
z
" transform="scale(0.015625)"/>
      <path id="DejaVuSans-56" d="M 1831 0 
L 50 4666 
L 709 4666 
L 2188 738 
L 3669 4666 
L 4325 4666 
L 2547 0 
L 1831 0 
z
" transform="scale(0.015625)"/>
      <path id="DejaVuSans-6c" d="M 603 4863 
L 1178 4863 
L 1178 0 
L 603 0 
L 603 4863 
z
" transform="scale(0.015625)"/>
      <path id="DejaVuSans-74" d="M 1172 4494 
L 1172 3500 
L 2356 3500 
L 2356 3053 
L 1172 3053 
L 1172 1153 
Q 1172 725 1289 603 
Q 1406 481 1766 481 
L 2356 481 
L 2356 0 
L 1766 0 
Q 1100 0 847 248 
Q 594 497 594 1153 
L 594 3053 
L 172 3053 
L 172 3500 
L 594 3500 
L 594 4494 
L 1172 4494 
z
" transform="scale(0.015625)"/>
      <path id="DejaVuSans-4f" d="M 2522 4238 
Q 1834 4238 1429 3725 
Q 1025 3213 1025 2328 
Q 1025 1447 1429 934 
Q 1834 422 2522 422 
Q 3209 422 3611 934 
Q 4013 1447 4013 2328 
Q 4013 3213 3611 3725 
Q 3209 4238 2522 4238 
z
M 2522 4750 
Q 3503 4750 4090 4092 
Q 4678 3434 4678 2328 
Q 4678 1225 4090 567 
Q 3503 -91 2522 -91 
Q 1538 -91 948 565 
Q 359 1222 359 2328 
Q 359 3434 948 4092 
Q 1538 4750 2522 4750 
z
" transform="scale(0.015625)"/>
      <path id="DejaVuSans-76" d="M 191 3500 
L 800 3500 
L 1894 563 
L 2988 3500 
L 3597 3500 
L 2284 0 
L 1503 0 
L 191 3500 
z
" transform="scale(0.015625)"/>
      <path id="DejaVuSans-65" d="M 3597 1894 
L 3597 1613 
L 953 1613 
Q 991 1019 1311 708 
Q 1631 397 2203 397 
Q 2534 397 2845 478 
Q 3156 559 3463 722 
L 3463 178 
Q 3153 47 2828 -22 
Q 2503 -91 2169 -91 
Q 1331 -91 842 396 
Q 353 884 353 1716 
Q 353 2575 817 3079 
Q 1281 3584 2069 3584 
Q 2775 3584 3186 3129 
Q 3597 2675 3597 1894 
z
M 3022 2063 
Q 3016 2534 2758 2815 
Q 2500 3097 2075 3097 
Q 1594 3097 1305 2825 
Q 1016 2553 972 2059 
L 3022 2063 
z
" transform="scale(0.015625)"/>
     </defs>
     <use xlink:href="#DejaVuSans-54"/>
     <use xlink:href="#DejaVuSans-72" x="46.333984"/>
     <use xlink:href="#DejaVuSans-61" x="87.447266"/>
     <use xlink:href="#DejaVuSans-69" x="148.726562"/>
     <use xlink:href="#DejaVuSans-6e" x="176.509766"/>
     <use xlink:href="#DejaVuSans-20" x="239.888672"/>
     <use xlink:href="#DejaVuSans-61" x="271.675781"/>
     <use xlink:href="#DejaVuSans-6e" x="332.955078"/>
     <use xlink:href="#DejaVuSans-64" x="396.333984"/>
     <use xlink:href="#DejaVuSans-20" x="459.810547"/>
     <use xlink:href="#DejaVuSans-56" x="491.597656"/>
     <use xlink:href="#DejaVuSans-61" x="552.255859"/>
     <use xlink:href="#DejaVuSans-6c" x="613.535156"/>
     <use xlink:href="#DejaVuSans-69" x="641.318359"/>
     <use xlink:href="#DejaVuSans-64" x="669.101562"/>
     <use xlink:href="#DejaVuSans-61" x="732.578125"/>
     <use xlink:href="#DejaVuSans-74" x="793.857422"/>
     <use xlink:href="#DejaVuSans-69" x="833.066406"/>
     <use xlink:href="#DejaVuSans-6f" x="860.849609"/>
     <use xlink:href="#DejaVuSans-6e" x="922.03125"/>
     <use xlink:href="#DejaVuSans-20" x="985.410156"/>
     <use xlink:href="#DejaVuSans-61" x="1017.197266"/>
     <use xlink:href="#DejaVuSans-63" x="1078.476562"/>
     <use xlink:href="#DejaVuSans-63" x="1133.457031"/>
     <use xlink:href="#DejaVuSans-75" x="1188.4375"/>
     <use xlink:href="#DejaVuSans-72" x="1251.816406"/>
     <use xlink:href="#DejaVuSans-61" x="1292.929688"/>
     <use xlink:href="#DejaVuSans-63" x="1354.208984"/>
     <use xlink:href="#DejaVuSans-79" x="1409.189453"/>
     <use xlink:href="#DejaVuSans-20" x="1468.369141"/>
     <use xlink:href="#DejaVuSans-4f" x="1500.15625"/>
     <use xlink:href="#DejaVuSans-76" x="1578.867188"/>
     <use xlink:href="#DejaVuSans-65" x="1638.046875"/>
     <use xlink:href="#DejaVuSans-72" x="1699.570312"/>
     <use xlink:href="#DejaVuSans-20" x="1740.683594"/>
     <use xlink:href="#DejaVuSans-45" x="1772.470703"/>
     <use xlink:href="#DejaVuSans-70" x="1835.654297"/>
     <use xlink:href="#DejaVuSans-6f" x="1899.130859"/>
     <use xlink:href="#DejaVuSans-63" x="1960.3125"/>
     <use xlink:href="#DejaVuSans-68" x="2015.292969"/>
     <use xlink:href="#DejaVuSans-73" x="2078.671875"/>
    </g>
   </g>
   <g id="legend_1">
    <g id="patch_7">
     <path d="M 310.77625 108.74075 
L 407.72 108.74075 
Q 409.72 108.74075 409.72 106.74075 
L 409.72 48.472 
Q 409.72 46.472 407.72 46.472 
L 310.77625 46.472 
Q 308.77625 46.472 308.77625 48.472 
L 308.77625 106.74075 
Q 308.77625 108.74075 310.77625 108.74075 
z
" style="fill: #ffffff; opacity: 0.8; stroke: #cccccc; stroke-linejoin: miter"/>
    </g>
    <g id="line2d_22">
     <path d="M 312.77625 54.570438 
L 322.77625 54.570438 
L 332.77625 54.570438 
" style="fill: none; stroke: #1f77b4; stroke-width: 1.5; stroke-linecap: square"/>
    </g>
    <g id="text_21">
     <!-- loss -->
     <g transform="translate(340.77625 58.070438) scale(0.1 -0.1)">
      <use xlink:href="#DejaVuSans-6c"/>
      <use xlink:href="#DejaVuSans-6f" x="27.783203"/>
      <use xlink:href="#DejaVuSans-73" x="88.964844"/>
      <use xlink:href="#DejaVuSans-73" x="141.064453"/>
     </g>
    </g>
    <g id="line2d_23">
     <path d="M 312.77625 69.248563 
L 322.77625 69.248563 
L 332.77625 69.248563 
" style="fill: none; stroke: #ff7f0e; stroke-width: 1.5; stroke-linecap: square"/>
    </g>
    <g id="text_22">
     <!-- val_loss -->
     <g transform="translate(340.77625 72.748563) scale(0.1 -0.1)">
      <defs>
       <path id="DejaVuSans-5f" d="M 3263 -1063 
L 3263 -1509 
L -63 -1509 
L -63 -1063 
L 3263 -1063 
z
" transform="scale(0.015625)"/>
      </defs>
      <use xlink:href="#DejaVuSans-76"/>
      <use xlink:href="#DejaVuSans-61" x="59.179688"/>
      <use xlink:href="#DejaVuSans-6c" x="120.458984"/>
      <use xlink:href="#DejaVuSans-5f" x="148.242188"/>
      <use xlink:href="#DejaVuSans-6c" x="198.242188"/>
      <use xlink:href="#DejaVuSans-6f" x="226.025391"/>
      <use xlink:href="#DejaVuSans-73" x="287.207031"/>
      <use xlink:href="#DejaVuSans-73" x="339.306641"/>
     </g>
    </g>
    <g id="line2d_24">
     <path d="M 312.77625 84.204813 
L 322.77625 84.204813 
L 332.77625 84.204813 
" style="fill: none; stroke: #2ca02c; stroke-width: 1.5; stroke-linecap: square"/>
    </g>
    <g id="text_23">
     <!-- accuracy -->
     <g transform="translate(340.77625 87.704813) scale(0.1 -0.1)">
      <use xlink:href="#DejaVuSans-61"/>
      <use xlink:href="#DejaVuSans-63" x="61.279297"/>
      <use xlink:href="#DejaVuSans-63" x="116.259766"/>
      <use xlink:href="#DejaVuSans-75" x="171.240234"/>
      <use xlink:href="#DejaVuSans-72" x="234.619141"/>
      <use xlink:href="#DejaVuSans-61" x="275.732422"/>
      <use xlink:href="#DejaVuSans-63" x="337.011719"/>
      <use xlink:href="#DejaVuSans-79" x="391.992188"/>
     </g>
    </g>
    <g id="line2d_25">
     <path d="M 312.77625 98.882938 
L 322.77625 98.882938 
L 332.77625 98.882938 
" style="fill: none; stroke: #d62728; stroke-width: 1.5; stroke-linecap: square"/>
    </g>
    <g id="text_24">
     <!-- val_accuracy -->
     <g transform="translate(340.77625 102.382938) scale(0.1 -0.1)">
      <use xlink:href="#DejaVuSans-76"/>
      <use xlink:href="#DejaVuSans-61" x="59.179688"/>
      <use xlink:href="#DejaVuSans-6c" x="120.458984"/>
      <use xlink:href="#DejaVuSans-5f" x="148.242188"/>
      <use xlink:href="#DejaVuSans-61" x="198.242188"/>
      <use xlink:href="#DejaVuSans-63" x="259.521484"/>
      <use xlink:href="#DejaVuSans-63" x="314.501953"/>
      <use xlink:href="#DejaVuSans-75" x="369.482422"/>
      <use xlink:href="#DejaVuSans-72" x="432.861328"/>
      <use xlink:href="#DejaVuSans-61" x="473.974609"/>
      <use xlink:href="#DejaVuSans-63" x="535.253906"/>
      <use xlink:href="#DejaVuSans-79" x="590.234375"/>
     </g>
    </g>
   </g>
  </g>
 </g>
 <defs>
  <clipPath id="p9873e65d50">
   <rect x="57.6" y="41.472" width="357.12" height="266.112"/>
  </clipPath>
 </defs>
</svg>
